<svg xmlns="http://www.w3.org/2000/svg" viewBox="0 0 395 395.5"><defs><style>.cls-1,.cls-2,.cls-3,.cls-5{fill:none;stroke:#fff;stroke-miterlimit:10;}.cls-1{stroke-width:5px;}.cls-2{stroke-width:15px;}.cls-3{stroke-width:17px;}.cls-4{fill:#fff;}.cls-5{stroke-width:3px;}</style></defs><title>Circle-1</title><g id="_1_line" data-name="1 line"><path class="cls-1" d="M291.51,372.33A194.05,194.05,0,0,1,206.17,395" transform="translate(-2.5 -2)"/><path class="cls-1" d="M373.19,289.77A195.63,195.63,0,0,1,345,330.52" transform="translate(-2.5 -2)"/><path class="cls-1" d="M371.52,107.17A195.54,195.54,0,0,1,377.92,280" transform="translate(-2.5 -2)"/><path class="cls-1" d="M180.54,6q9.6-1,19.46-1a194.72,194.72,0,0,1,63.21,10.48" transform="translate(-2.5 -2)"/><path class="cls-1" d="M5,200.05A194.52,194.52,0,0,1,66.55,57.83" transform="translate(-2.5 -2)"/><path class="cls-2" d="M42.94,229.53" transform="translate(-2.5 -2)"/><path class="cls-2" d="M82,308.22" transform="translate(-2.5 -2)"/><path class="cls-3" d="M258.73,348.88" transform="translate(-2.5 -2)"/><path class="cls-3" d="M317.85,308.22" transform="translate(-2.5 -2)"/></g><g id="_2_line" data-name="2 line"><path class="cls-3" d="M179.54,359.83A160.05,160.05,0,0,1,39.61,215.07" transform="translate(-2.5 -2)"/><path class="cls-3" d="M316.85,309.22a160.3,160.3,0,0,1-59.12,40.66" transform="translate(-2.5 -2)"/><path class="cls-3" d="M321.85,98.48A159.39,159.39,0,0,1,359,201q0,3.78-.17,7.51" transform="translate(-2.5 -2)"/><path class="cls-3" d="M98.66,76.36A159.36,159.36,0,0,1,199,41a161.76,161.76,0,0,1,19.42,1.17" transform="translate(-2.5 -2)"/><path class="cls-4" d="M200,2l-2.47,0L198,40h2V2Zm1.76,0-.33,38h2l.8-38-2.47,0Z" transform="translate(-2.5 -2)"/></g><g id="_3_line" data-name="3 line"><path class="cls-4" d="M200,55h-2l.12,9H200V55Zm-4,0h-.19l-1.11,0-.7,0,.37,9,1.87-.06-.24-9Zm-4,.17-1,.06h-.17l-.8.05.61,9,1.87-.12-.49-9Zm-4,.27-.4,0h-.1l-.37,0h-.2l-.92.09.86,9,1.87-.16-.74-9Zm-4,.38-.93.1h-.16l-.9.11L183.15,65c.62-.07,1.24-.15,1.86-.21l-1-8.95Zm-4,.49-.78.11h-.49l-.71.11,1.35,8.89,1.86-.26-1.23-8.92Zm-3.95.6-1.44.24h0l-.49.09,1.6,8.86,1.85-.32L176.11,57Zm-3.94.71-2,.39,1.84,8.81,1.84-.37-1.72-8.83Zm-3.92.82-.3.06h-.1l-1.2.27h-.05l-.3.08,2.09,8.75,1.83-.42-2-8.78Zm-3.89.92-1.21.31h0l-.06,0h-.24l0,0h-.07s0,0,0,0h-.06l-.24.07,2.32,8.69,1.82-.47-2.21-8.73Zm-3.86,1-1.92.55,2.56,8.63,1.8-.52-2.44-8.66Zm-3.84,1.14-.53.17h-.21l-1.16.38,2.81,8.55c.59-.2,1.18-.39,1.78-.57l-2.69-8.59Zm-3.8,1.24-.05,0-1,.34h-.34l-.51.19L154,72l1.77-.62-2.93-8.52Zm-3.76,1.36-1.45.55h-.05l-.37.14,3.28,8.38,1.75-.67-3.16-8.42Zm-3.73,1.45-1.84.77L147,74.7q.87-.37,1.74-.72l-3.4-8.34Zm-3.68,1.56-.4.18h0l0,0-.1,0h0l0,0h0l-1.21.55,3.73,8.19,1.71-.77-3.62-8.24Zm-3.64,1.66-1.8.87,4,8.08L141.9,77l-3.85-8.14Zm-3.59,1.76-.42.21h0l0,0H134l0,0h0l-1.1.57h0l0,0h0l0,0h0l4.19,8,1.66-.86-4.07-8Zm-3.54,1.86-1.75,1,4.4,7.85,1.64-.91-4.29-7.91Zm-3.49,2-.29.17h0l0,0h0l0,0h0l-1,.6,0,0h0l-.22.13,4.61,7.73,1.62-1-4.51-7.79Zm-3.43,2-1.7,1.06,4.83,7.6,1.59-1L124,76.49Zm-3.38,2.15-.67.44h0l0,0h0l0,0-.9.61,5,7.45,1.57-1-4.94-7.52Zm-3.31,2.24-.8.56h0l0,0h0l0,0,0,0,0,0,0,0h0l-.66.47,5.24,7.32,1.54-1.09-5.14-7.38Zm-3.26,2.32-.29.23h0l0,0h0l0,0h0l0,0h0l-.1.07h0l0,0h0l0,0h0l0,0h0l0,0h0l-.2.14h0l0,0h0l0,0h0l-.34.26h0l-.05,0h0l-.14.11h0l5.44,7.17,1.5-1.12-5.34-7.25Zm-3.18,2.42-1.57,1.24,5.63,7,1.47-1.16-5.53-7.1Zm-3.12,2.51-.29.23h0l0,0,0,0h0l-.79.66,0,0h0l-.34.28L112,96.27c.48-.4,1-.81,1.44-1.2l-5.73-6.94Zm-3,2.58L103.2,92l6,6.7,1.41-1.24-5.92-6.79Zm-3,2.68-.21.19h0l0,0,0,0,0,0,0,0h0l0,0h0l-.82.76h0l0,.05h0l0,0h0l-.13.13h0l0,0h0l6.19,6.53,1.37-1.28-6.1-6.61Zm-2.9,2.75-.58.57,0,0h0c-.27.27-.54.53-.8.8l6.36,6.36,1.34-1.32-6.28-6.44ZM96,99l-.11.12h0l0,0h0l-.64.67h0l0,0h0l0,0h0L95,100l0,0h0l0,0h0l0,0h0l-.28.29,6.54,6.18,1.3-1.35L96,99Zm-2.75,2.9a3.33,3.33,0,0,1-.25.28h0l0,0h0l0,0v0l0,0,0,0,0,0,0,0h0l-.91,1,6.71,6L99.87,108l-6.63-6.1Zm-2.66,3-.65.74h0l0,0h0l0,0,0,0,0,0,0,0h0c-.18.2-.35.41-.52.61l6.86,5.82,1.23-1.43-6.79-5.9Zm-2.59,3-.75.92h0l0,0,0,0,0,0v0l0,0,0,0h0l-.38.46,7,5.63c.39-.49.78-1,1.18-1.46l-7-5.72ZM85.49,111h0l0,0h0l0,0h0l0,0h0l0,0,0,0,0,0h0l0,0h0l0,0h0l0,.05h0l0,0v0l0,0,0,0,0,0h0l0,0v0l0,0,0,0,0,0,0,0,0,0v0l0,0,0,0,0,0v0l0,0,0,0,0,0,0,0v0l0,0,0,0,0,0,0,0,0,0,0,0v0l0,0,0,0,0,0v0l0,0h0l-.22.3,7.18,5.43c.37-.5.75-1,1.14-1.49L85.49,111Zm-2.41,3.19-.28.38h0l0,0v0l0,0h0l0,0,0,0,0,0,0,0,0,0v0l0,0,0,0,0,0h0l0,0h0l-.6.84,7.32,5.23,1.1-1.52-7.25-5.33Zm-2.32,3.26c-.38.55-.76,1.09-1.13,1.65l7.47,5c.34-.51.7-1,1.05-1.54l-7.39-5.13Zm-2.24,3.32c-.27.41-.53.81-.79,1.23h0l0,0h0l0,0,0,0v0l-.2.32L85,127.3l1-1.58-7.54-4.92Zm-2.14,3.37h0l0,0,0,0v0l-.62,1h0l0,0h0l0,0h0l0,0h0l-.27.45,7.73,4.61c.32-.54.64-1.07,1-1.6l-7.67-4.72Zm-2,3.44c-.33.58-.66,1.16-1,1.74l7.85,4.39.93-1.63-7.8-4.5Zm-2,3.49v0h0l0,0,0,0h0l-.38.72h0l0,0h0l0,.06h0l0,.05,0,0h0l-.39.73,8,4.17c.29-.55.58-1.11.88-1.66l-7.92-4.28Zm-1.85,3.55c-.06.12-.13.24-.19.37h0l0,0h0l0,0h0l0,0h0l-.63,1.27,8.08,3.95.84-1.68-8-4.06Zm-1.76,3.59v0h0v.06l0,0v.07l0,0v.06h0c-.23.48-.45,1-.67,1.44h0l0,0,0,0h0l8.2,3.73c.25-.57.52-1.14.78-1.7l-8.14-3.84Zm-1.65,3.64-.07.17,0,0h0c-.13.32-.27.64-.41,1h0l0,0v.05l-.24.57,8.29,3.49c.24-.57.49-1.15.74-1.72l-8.24-3.61Zm-1.56,3.69c-.17.44-.35.87-.52,1.31h0l0,0h0l0,0h0l0,0h0l-.15.39,8.38,3.26L73.9,149l-8.34-3.38Zm-1.45,3.72c0,.15-.1.29-.16.43v.05c-.18.47-.35.94-.51,1.4l8.47,3c.21-.59.43-1.17.64-1.76l-8.43-3.15Zm-1.34,3.77c-.22.63-.43,1.26-.64,1.9l8.56,2.79c.19-.59.39-1.19.59-1.78l-8.51-2.91Zm-1.25,3.8c-.05.18-.11.36-.16.54h0v.07h0c-.08.28-.17.56-.25.84h0v.1c0,.12-.07.24-.11.36l8.63,2.55c.18-.6.36-1.2.55-1.79l-8.6-2.68Zm-1.13,3.84c-.08.3-.17.6-.25.9h0l0,0v0h0c-.08.3-.17.61-.25.92l8.7,2.31.49-1.81-8.66-2.43Zm-1,3.86c-.16.65-.32,1.3-.47,1.95l8.76,2.07c.14-.61.29-1.22.44-1.82l-8.73-2.2Zm-.92,3.9,0,.18h0v.25h0L58,170.41l8.81,1.83c.13-.61.26-1.22.4-1.83l-8.79-1.95Zm-.81,3.91c0,.12-.05.25-.07.37h0v.09c-.09.46-.18.94-.26,1.4l0,.1,8.86,1.58c.11-.61.23-1.23.35-1.84l-8.84-1.71Zm-.7,3.94v0h0c-.06.34-.11.69-.17,1v.09h0v0h0v0h0c0,.22-.07.45-.11.68l8.91,1.33c.09-.62.19-1.23.29-1.85l-8.88-1.46Zm-.6,4c-.09.66-.17,1.32-.25,2L65,183.34l.24-1.86-8.92-1.21Zm-.48,4-.09.82h0v.1c0,.35-.07.7-.1,1.06l9,.84c0-.62.12-1.25.18-1.87l-8.94-1Zm-.38,4c0,.66-.1,1.33-.14,2l9,.6c0-.62.08-1.25.13-1.87l-9-.72Zm-.26,4,0,.44c0,.39,0,.78,0,1.18v.1h0a2.62,2.62,0,0,1,0,.28l9,.35c0-.63,0-1.25.08-1.87l-9-.48Zm-.16,4c0,.1,0,.21,0,.31h0v.08h0l0,1.45h0v.07h0v.07l9,.1c0-.62,0-1.25,0-1.87l-9-.23Zm9,4H55c0,.51,0,1,0,1.54h0v.07h0c0,.12,0,.25,0,.37l9-.13c0-.63,0-1.26,0-1.88Zm.06,3.75-9,.26c0,.39,0,.77,0,1.16h0v.2h0c0,.2,0,.41,0,.62l9-.38c0-.63-.05-1.25-.06-1.88Zm.15,3.75-9,.51c0,.24,0,.49,0,.74h0v0h0v0l.06.94v.21l9-.62-.12-1.88Zm.26,3.75-9,.75,0,.44v.06c0,.5.09,1,.14,1.49l9-.87c-.06-.62-.11-1.25-.17-1.87Zm.37,3.73-9,1c0,.13,0,.27,0,.4v.09h0c0,.41.09.82.15,1.23v.1h0l0,.14,8.93-1.11c-.08-.62-.15-1.24-.22-1.87Zm.46,3.73-8.91,1.24c0,.24.07.49.1.73h0V221h0v.11h0v.05h0v0h0v0h0v0h0c0,.28.08.56.13.83l8.89-1.36-.27-1.85Zm.57,3.7L57,224.1c.11.62.21,1.23.32,1.85l0,.12,8.85-1.61c-.11-.61-.22-1.23-.32-1.85Zm.67,3.69L57.71,228c.13.66.26,1.31.4,2l8.8-1.86c-.12-.61-.25-1.22-.37-1.84Zm.77,3.67-8.78,2c.12.51.23,1,.35,1.52v.05l.09.38,8.76-2.1c-.15-.61-.29-1.21-.43-1.83Zm.88,3.65-8.73,2.22.51,1.93,8.69-2.33c-.16-.61-.32-1.21-.47-1.82Zm1,3.62L60.5,239.7c.19.65.37,1.28.56,1.92L69.68,239c-.17-.6-.35-1.2-.52-1.8Zm1.07,3.6-8.58,2.69c.2.64.4,1.27.61,1.91l8.55-2.82c-.2-.59-.39-1.19-.58-1.78Zm1.18,3.56-8.51,2.93c.22.63.44,1.26.67,1.89L72,246.16c-.21-.58-.42-1.17-.62-1.76Zm1.27,3.52-8.42,3.18.14.36h0l0,0v0l0,0,0,.05h0l0,.05h0l0,.05h0l0,0h0l0,0h0c.11.29.22.58.34.87h0l0,.12h0l0,.11,8.37-3.29c-.22-.58-.45-1.16-.67-1.75Zm1.37,3.49-8.33,3.41c.25.62.51,1.23.77,1.84l8.28-3.52-.72-1.73Zm1.47,3.46-8.24,3.63L68,260h0v0l0,0v.06h0l.08.16,8.18-3.74c-.26-.57-.52-1.14-.77-1.71Zm1.56,3.4L69,262.14l.38.78V263l0,0v0l0,0h0c.12.27.25.53.38.79h0l0,0v.05l8.08-4c-.28-.56-.55-1.12-.82-1.69Zm1.66,3.37-8,4.09h0v0h0l0,0v0l0,0v0l0,0h0l.11.22h0l0,.05h0l0,0h0l0,0h0l.11.22h0l0,.05h0l0,.05h0l0,0h0l0,0h0l.09.16v0l0,0h0l0,0v0l0,0v0l0,0h0l0,.05h0l0,0h0l0,.05h0l0,0v0l0,0v0l0,0h0l8-4.19c-.29-.56-.58-1.11-.86-1.67ZM80.48,265l-7.9,4.3h0l0,0,0,0h0l.29.52h0l0,0h0l0,0c.19.35.39.69.58,1l7.84-4.41L80.48,265Zm1.84,3.27-7.78,4.52,1,1.72,7.72-4.63-1-1.61Zm1.93,3.21-7.65,4.74.66,1.06h0l0,0,0,0v0l0,0h0l.31.5L85.25,273c-.33-.52-.67-1-1-1.59Zm2,3.17-7.52,4.94.73,1.1h0l0,.05h0l.07.1h0l0,.05,0,0,0,0v0l0,0,0,0v0l0,0h0l0,0h0l.1.15,7.45-5.05-1-1.56Zm2.11,3.1L81,282.86l.33.46h0l0,0v0l0,0,0,0h0l.46.66h0l0,0,0,0h0l.22.31,7.31-5.25c-.36-.51-.73-1-1.08-1.54Zm2.19,3.05-7.24,5.35c.11.16.23.31.35.47h0l0,0h0l0,0,0,0h0l.59.79h0l0,0v0h0l.1.12,7.16-5.45c-.38-.49-.75-1-1.12-1.5Zm2.27,3-7.09,5.55.07.08h0c.39.49.77,1,1.16,1.46l7-5.64-1.16-1.47Zm2.35,2.92-6.93,5.74,1.18,1.41h0l0,0,.07.08,6.86-5.83-1.21-1.44Zm2.43,2.86-6.77,5.93.1.11,0,0v0l0,0h0l1,1.16.13.14,6.69-6c-.42-.46-.83-.93-1.25-1.4Zm2.51,2.79-6.6,6.11,1.36,1.46,6.53-6.2-1.29-1.37Zm2.59,2.72-6.44,6.29,1.41,1.42,6.35-6.38L102.72,295Zm2.66,2.65-6.26,6.46.36.35h0l.13.13h0l0,0,0,0h0l0,0h0l0,0h0l0,0h0l.12.11h0l0,0v0l0,0,0,0,0,0,0,0,0,0,0,0h0l.45.42,6.18-6.55c-.46-.42-.91-.86-1.36-1.29Zm2.73,2.57L102,306.9l1,.9h0l0,0h0l0,0v0l0,0h0l.35.32,6-6.72c-.46-.42-.93-.83-1.39-1.26Zm2.8,2.5-5.9,6.8,1.52,1.3,5.81-6.88-1.43-1.22Zm2.87,2.42-5.71,7,1.55,1.26,5.62-7c-.49-.39-1-.78-1.46-1.18Zm2.93,2.34-5.51,7.11,1.58,1.22,5.42-7.19c-.5-.37-1-.75-1.49-1.14Zm3,2.26L114.39,317l.35.26.88.63h0l0,0,.35.25,5.22-7.33-1.52-1.1Zm3.06,2.18-5.12,7.4,1.65,1.13,5-7.48c-.52-.34-1-.7-1.55-1.05Zm3.11,2.09L121,321.59l.57.37h0l0,0h0l0,0,0,0h0l.53.35h0l0,0,0,0h0l0,0h0l.31.2,4.81-7.61-1.58-1Zm3.17,2-4.7,7.68,1.46.88,0,0h0l.21.13,4.6-7.74-1.61-1Zm3.23,1.92-4.49,7.8,0,0h0l0,0h0l0,0h0l0,0h0l.05,0h0l.05,0h0l0,0h0l0,0h0l0,0h0l0,0h0c.39.23.79.45,1.19.67l4.38-7.86c-.55-.3-1.09-.61-1.63-.92Zm3.28,1.82-4.28,7.93.39.2h0l.05,0h0l0,0h.07l0,0h0l0,0,.07,0h.06l0,0h0l0,0h0l0,0h0l.05,0h0l.81.42,4.16-8-1.65-.88Zm3.32,1.74-4,8,1.7.84h.05l0,0,3.94-8.09-1.68-.83Zm3.37,1.64-3.82,8.15,1.35.62h0l0,0h0l.05,0h0l.31.14L144,324l-1.71-.78Zm3.42,1.55-3.6,8.25h.06l.05,0h0l.11.05h0l.06,0h0l0,0h0l.05,0h0l.4.17h0l.05,0h0l.06,0h0l.17.08h0l0,0h.1l0,0h0l.55.23,3.48-8.3-1.72-.73Zm3.46,1.45-3.37,8.34,1.86.74,3.25-8.39-1.74-.69Zm3.49,1.35L149.49,336l1.88.68,3-8.48-1.77-.64Zm3.54,1.26-2.9,8.52c.63.22,1.26.43,1.9.63l2.78-8.56-1.78-.59Zm3.56,1.16-2.66,8.6.09,0h0l0,0h0l0,0h.12l0,0h.39l1.17.35,2.54-8.64-1.8-.54Zm3.6,1.06-2.42,8.67,1.93.52,2.3-8.7-1.81-.49Zm3.63,1-2.18,8.73.35.09h.06l1,.25h0l.48.11,2.06-8.76L167,332Zm3.65.86-1.94,8.78.42.1h.16l.49.1h.16l.73.15,1.81-8.81-1.83-.39Zm3.67.75-1.69,8.84c.65.13,1.31.25,2,.36l1.57-8.86-1.84-.34Zm3.69.65-1.44,8.89,2,.31,1.33-8.91c-.62-.09-1.24-.18-1.86-.29Zm3.71.56-1.2,8.92.6.07h.21l1,.13.2,0,1.07-8.94-1.86-.23Zm3.73.45-1,8.95.66.06h.21l.62.06h.17l.33,0,.83-9-1.86-.18Zm3.73.34-.7,9h.16l1.63.12h.2l.59-9-1.88-.14Zm3.75.25-.46,9,.62,0h.15l1.22.05.35-9-1.88-.08Zm3.75.14-.21,9,1.12,0h.87l.1-9c-.63,0-1.25,0-1.88,0Zm5.64,0-1.88,0,0,9h.37l1.63,0-.15-9Zm3.75-.11-1.87.07.27,9h.22l1.43-.05h.35l-.4-9Zm3.75-.22c-.62.05-1.25.09-1.87.12l.51,9,1.35-.08h.65l-.64-9Zm3.74-.31-1.87.17.76,9,2-.19-.88-9Zm3.73-.42-1.86.22,1,8.94h.1l1.14-.13h.25l.5-.06-1.13-8.93Zm3.72-.52-1.86.27,1.25,8.91.6-.08h.35l.33-.05H222l.37-.06L221,334.4Zm3.69-.63-1.84.33L224.3,343l.25,0,1.72-.3-1.62-8.86Zm3.68-.72-1.83.37,1.74,8.83,2-.4-1.87-8.8Zm3.66-.83c-.61.14-1.21.29-1.83.42l2,8.78c.61-.13,1.22-.28,1.82-.42h.13L232,332.22Zm3.63-.93-1.81.48,2.23,8.72L238,340l-2.35-8.69Zm3.61-1-1.8.53,2.47,8.65.11,0h0l1.06-.31h.06l.67-.2-2.59-8.62Zm3.57-1.13-1.78.58,2.71,8.58.81-.26h.32l.12,0h.22l0,0h0l.38-.13-2.83-8.54Zm3.55-1.23-1.77.63,2.95,8.5,1.27-.45h.09l.52-.19-3.06-8.46Zm3.5-1.33-1.74.68,3.18,8.42,1.16-.45h0l0,0h.1l.55-.21-3.31-8.38Zm3.47-1.42c-.57.25-1.15.49-1.73.72L255,334.2l1.5-.62h0l0,0h0l0,0h.09l.16-.07-3.54-8.28Zm3.43-1.52c-.56.26-1.13.52-1.71.77l3.65,8.23L260,332h0l0,0,0,0h0l.39-.18-3.76-8.18Zm3.39-1.61-1.69.82,3.87,8.12,1.22-.59h0l0,0h0l.05,0h0l.45-.22-4-8.07Zm3.34-1.71-1.67.87,4.1,8,1.66-.86.11-.06-4.2-8Zm3.29-1.8c-.54.31-1.09.61-1.64.91l4.32,7.9,1.42-.79h0l0,0h0l0,0,.24-.13-4.42-7.84Zm3.24-1.89-1.61,1,4.53,7.77c.57-.33,1.15-.67,1.72-1L270,316.62Zm3.19-2-1.59,1,4.75,7.65.87-.54h0l0,0,0,0h0l.73-.47-4.85-7.58Zm3.13-2.06-1.56,1,5,7.51h0l0,0h0l.05,0h0l.57-.37h0l0,0h0l0,0h0l0,0h0l0,0h0l.16-.1h0l.05,0h0l.57-.39-5.06-7.44Zm3.07-2.15-1.53,1.08,5.16,7.38,1.64-1.16-5.27-7.3Zm3-2.24-1.5,1.13,5.36,7.23,1.39-1.05.21-.15-5.46-7.16Zm2.95-2.32L283.9,307l5.56,7.08.19-.15,0,0h0l1.33-1.06-5.65-7Zm2.89-2.39c-.48.4-1,.81-1.44,1.2l5.75,6.93.63-.53.71-.59,0,0h0l.16-.14-5.84-6.84Zm2.82-2.48-1.4,1.25,5.93,6.76,1.5-1.33-6-6.68Zm2.75-2.55-1.37,1.28,6.12,6.6c.11-.09.21-.19.31-.29h0l0,0,0,0,0,0,0,0h0l.81-.77,0,0h0l0,0h0L300,305l-6.21-6.51Zm2.68-2.63c-.44.44-.88.89-1.33,1.32l6.3,6.43h0l0,0,.57-.56h0l.1-.1,0,0h0l0,0h0l0,0h0l.62-.62-6.39-6.34Zm2.61-2.7c-.43.46-.86.91-1.3,1.36l6.48,6.25.25-.26,0,0,0,0,0,0h0l0,0h0c.15-.15.3-.3.44-.46h0l0,0,0,0,0,0,0,0h0l.47-.49-6.56-6.17Zm2.53-2.77c-.41.47-.83.93-1.26,1.4l6.65,6.07.42-.46h0l0,0h0l0,0,0,0v0c.28-.3.54-.6.82-.91l-6.73-6Zm2.46-2.84c-.41.48-.81,1-1.22,1.43l6.8,5.89c.44-.5.87-1,1.3-1.52l-6.88-5.8Zm2.37-2.9-1.17,1.46,7,5.7.34-.41h0l0,0v0l0,0,0,0v0l0,0h0l.79-1-7-5.6Zm2.3-3-1.14,1.49,7.12,5.51,1-1.29h0l0,0,0,0h0c.05-.07.11-.14.16-.22l-7.19-5.41Zm2.21-3c-.36.51-.72,1-1.09,1.52l7.26,5.31c.37-.5.73-1,1.09-1.5h0l0,0h0v0l0,0h0L311,278.61Zm2.13-3.09-1.05,1.55,7.41,5.11,1.12-1.65-7.48-5Zm2.05-3.15c-.34.53-.67,1.06-1,1.58l7.55,4.91c.11-.17.22-.33.32-.5l0,0h0l0,0h0l0,0h0l0,0h0l0,0v0l0,0,.58-.92-7.61-4.8Zm1.95-3.2c-.32.54-.64,1.08-1,1.61l7.69,4.69,0-.08,0,0v0l0,0h0l0-.05h0l.38-.64h0l0,0v0l0,0,0,0v0l0,0h0l.41-.67-7.75-4.59Zm1.87-3.25-.92,1.63,7.8,4.48,1-1.74L319,265.92Zm1.77-3.31-.87,1.66,7.92,4.26c.3-.54.58-1.08.86-1.62l0,0v0l0,0h0l0-.06-8-4.15Zm1.69-3.35c-.28.57-.55,1.13-.83,1.68l8,4,0-.09h0v0l0,0v0l0,0h0c.26-.52.52-1.05.77-1.57l-8.09-3.93Zm1.59-3.39c-.26.57-.52,1.13-.79,1.7l8.15,3.81c.29-.6.57-1.21.84-1.81l-8.2-3.7Zm1.49-3.44c-.24.57-.49,1.15-.74,1.72l8.26,3.59c.06-.14.11-.27.17-.4h0l0-.05h0l0,0h0l0-.05h0l0-.05h0l.51-1.21-8.3-3.47Zm1.4-3.48-.69,1.74,8.35,3.36.11-.26h0l0,0v0l0,0v0h0c.1-.27.21-.54.32-.81h0l0-.05h0v-.07h0l.21-.51-8.4-3.24Zm1.3-3.52c-.21.59-.42,1.18-.64,1.76l8.44,3.13c.19-.51.37-1,.55-1.52v-.05a3,3,0,0,0,.11-.32l-8.48-3Zm1.2-3.55c-.19.59-.39,1.19-.59,1.78l8.53,2.89.18-.53v-.14h0c.13-.41.26-.81.4-1.22l-8.57-2.77Zm1.11-3.58-.54,1.79,8.6,2.65c.1-.32.2-.64.29-1s.18-.58.26-.88h0v-.06l-8.63-2.52Zm1-3.62c-.16.61-.32,1.21-.49,1.81l8.67,2.41c0-.09,0-.19.08-.28h0v-.09q.23-.78.42-1.56l-8.7-2.29Zm.9-3.64c-.14.61-.29,1.22-.44,1.82l8.74,2.17.18-.72h0v-.05h0v-.07h0c.09-.36.17-.71.26-1.07L332.44,231Zm.8-3.66c-.12.61-.25,1.22-.38,1.83l8.79,1.93.24-1.14h0v-.13h0c.05-.22.1-.45.14-.67l-8.82-1.8Zm.7-3.69c-.1.62-.22,1.24-.33,1.85l8.84,1.68c.08-.41.15-.82.23-1.23h0v-.2h0l.09-.53-8.87-1.56Zm.6-3.7c-.09.62-.18,1.24-.28,1.86l8.88,1.43c.05-.29.09-.58.14-.86v-.16h0v-.05h0c.05-.29.09-.59.14-.89L334.54,220Zm.5-3.72c-.08.62-.15,1.24-.24,1.86l8.92,1.19,0-.18v-.21h0v-.06h0c.07-.51.13-1,.19-1.52L335,216.27Zm.39-3.73-.18,1.87,8.95.94.06-.62h0v-.06h0v-.34h0v-.05h0v-.05h0v-.05h0v0h0l.06-.72-9-.82Zm.29-3.74c0,.62-.08,1.25-.13,1.87l9,.7.06-.75h0v-.05h0v-.33c0-.29,0-.56.05-.85l-9-.57Zm.19-3.75c0,.63-.05,1.25-.08,1.87l9,.45h0v-.07h0c0-.36,0-.73.05-1.09l0-.81-9-.33Zm.08-3.76c0,.63,0,1.26,0,1.88l9,.21c0-.17,0-.34,0-.51v-.06c0-.39,0-.79,0-1.18h0v-.24l-9-.09Zm9-3.92-9,.16c0,.63,0,1.26,0,1.88l9,0c0-.66,0-1.33,0-2Zm-.13-4-9,.4c0,.63.05,1.25.07,1.88l9-.29a2.44,2.44,0,0,1,0-.27h0V195c0-.54,0-1.07-.07-1.61Zm-.23-4-9,.65c.05.63.09,1.25.12,1.88l9-.53,0-.22h0v-.46h0v-.4h0v-.05h0v-.05h0c0-.26,0-.53-.05-.79Zm-.35-4-8.95.89c.06.63.12,1.25.17,1.87l9-.77c-.06-.67-.12-1.33-.19-2Zm-.45-4-8.93,1.15c.08.62.16,1.24.23,1.86l8.94-1c-.07-.66-.15-1.32-.24-2Zm-.56-4-8.89,1.39c.09.62.19,1.24.27,1.86l8.91-1.27c0-.11,0-.22,0-.34h0v0h0v0h0v-.1l0-.24h0l-.18-1.18Zm-.67-3.94-8.85,1.63c.11.62.22,1.23.32,1.85l8.88-1.51c-.11-.66-.23-1.31-.35-2Zm-.78-3.92-8.8,1.88c.13.61.25,1.22.37,1.83l8.83-1.75v-.12h0l-.15-.72v-.15h0c-.07-.32-.13-.64-.2-1Zm-.89-3.9-8.75,2.12c.15.61.29,1.21.43,1.82l8.78-2c-.07-.29-.13-.57-.2-.86h0v-.06h0v-.06h0l-.06-.24h0v-.2h0l-.12-.51Zm-1-3.88-8.68,2.37.48,1.81,8.71-2.24c-.16-.65-.33-1.29-.51-1.94Zm-1.1-3.84-8.62,2.6c.18.6.36,1.2.53,1.8l8.65-2.48-.15-.54h0l0,0v0c-.13-.43-.25-.86-.38-1.29Zm-1.21-3.81L329.07,157c.2.59.39,1.19.58,1.78l8.58-2.72-.15-.46h0v-.13h0l-.15-.47h0l0,0v-.1c-.07-.23-.15-.45-.22-.68Zm-1.32-3.78-8.46,3.08c.22.59.43,1.17.63,1.77l8.5-3c-.22-.62-.44-1.25-.67-1.88Zm-1.42-3.74L326.5,150c.23.58.46,1.17.68,1.75l8.41-3.19c-.11-.32-.23-.63-.35-.94h0l0-.05h0l0-.05h0l0,0v0c-.1-.24-.19-.48-.29-.73Zm-1.52-3.7-8.28,3.55c.25.57.49,1.15.73,1.73l8.32-3.43-.11-.27h0l0-.05h0l0,0v-.05l0,0v0l-.58-1.38Zm-1.63-3.65-8.17,3.77c.26.57.52,1.14.77,1.71l8.23-3.66-.18-.4v0l0-.05h0c-.2-.45-.41-.89-.61-1.33ZM330,135.69l-8.06,4c.28.56.55,1.12.82,1.68l8.12-3.88c-.07-.15-.14-.3-.22-.45v0l0,0,0,0h0l0-.05h0c-.13-.28-.27-.56-.41-.84h0l0,0v0h0a2.44,2.44,0,0,0-.14-.28Zm-1.82-3.56-7.95,4.22.87,1.66,8-4.11-.1-.2h0l0,0v0l0,0v-.05l0,0h0l-.72-1.37Zm-1.92-3.51-7.84,4.44c.31.54.62,1.09.92,1.64l7.89-4.33-1-1.75Zm-2-3.45-7.71,4.65,1,1.62,7.77-4.55-.4-.67h0l0,0h0l0,0v0l-.07-.11v0l0,0v0l0,0v0l0,0h0l0,0h0l0-.05h0l-.07-.11h0l0,0h0l0,0h0l0,0h0l0,0h0l0,0h0l-.06-.1h0l0,0Zm-2.12-3.39-7.57,4.86c.34.52.67,1,1,1.58l7.64-4.75-.31-.5,0,0h0l0,0h0l-.66-1h0l0,0Zm-2.21-3.34-7.43,5.07c.35.52.7,1,1,1.56l7.51-5c-.18-.28-.37-.55-.56-.83h0l0,0h0l0,0h0l-.06-.1h0l0,0h0l0,0h0l0,0h0l0,0h0l-.28-.41Zm-2.29-3.27-7.3,5.27c.37.5.73,1,1.09,1.53l7.37-5.17-.24-.34h0l0,0h0l0,0v0l0,0,0,0v0l0,0h0l0,0h0l-.72-1ZM315.22,112l-7.15,5.47c.38.49.76,1,1.13,1.49l7.22-5.37c-.12-.16-.24-.33-.37-.49v0l0,0,0,0v0l0,0h0l-.39-.51h0l0,0h0l0,0v0l0,0,0,0,0,0,0,0v0l0,0h0l0,0h0l0,0h0l0,0h0l0-.05Zm-2.47-3.15-7,5.67,1.17,1.46,7.07-5.56c-.41-.53-.83-1-1.24-1.57Zm-2.56-3.07-6.84,5.85,1.21,1.44,6.92-5.76-.63-.75h0l0,0h0l0,0,0,0v0l0,0h0l0,0h0l-.48-.57Zm-2.65-3-6.67,6c.42.46.84.93,1.25,1.4l6.75-6c-.44-.5-.88-1-1.33-1.49Zm-2.72-2.93L298.31,106c.44.45.86.91,1.29,1.36l6.59-6.13-1.37-1.45ZM302,97l-6.33,6.39,1.33,1.33,6.42-6.31a2.28,2.28,0,0,1-.22-.22h0l0,0h0l0,0h0l0,0,0,0,0,0-.13-.13h0L302,97Zm-2.88-2.78L293,100.75l1.36,1.29,6.24-6.48-.35-.34,0,0,0,0,0,0h0l-1-.93,0,0Zm-2.95-2.69-6,6.73,1.39,1.25,6.07-6.65-.51-.45,0,0v0l-.95-.84Zm-3-2.62-5.79,6.9L288.79,97l5.88-6.81h0l0,0h0l-.42-.37h0l-.09-.08,0,0h0l0,0h0l0,0h0l-.61-.52h0l0,0,0,0h0l-.14-.12Zm-3.1-2.53-5.59,7,1.46,1.18,5.69-7-1.56-1.26Zm-3.17-2.44-5.4,7.2,1.5,1.14,5.5-7.13-1.34-1h0l0,0,0,0h0l-.18-.13Zm-3.23-2.35-5.2,7.34L280,90l5.29-7.28-1.62-1.16Zm-3.3-2.27-5,7.49,1.55,1L282,80.4l-1.66-1.12ZM277,77.11l-4.78,7.62,1.58,1,4.89-7.56-1.1-.7h0l-.05,0h0l0,0h0l0,0-.46-.28ZM273.58,75,269,82.78l1.61,1,4.68-7.68L274,75.25h0l0,0h0l0,0h-.05l0,0h0l-.19-.11Zm-3.47-2-4.36,7.88c.55.3,1.09.61,1.63.92L271.85,74l-1.74-1Zm-3.53-1.88-4.14,8,1.66.87,4.25-7.93q-.89-.48-1.77-.93ZM263,69.37l-3.91,8.1,1.68.83,4-8-.09,0h0L263,69.37Zm-3.62-1.69-3.69,8.2,1.7.78,3.81-8.15-.4-.18h0l0,0h-.09l-.58-.27h0l0,0h-.1l-.05,0h0l-.51-.23Zm-3.67-1.59-3.46,8.3,1.72.74,3.58-8.26-.44-.19h0l0,0H257l0,0h0q-.6-.27-1.2-.51ZM252,64.6,248.76,73c.59.23,1.17.45,1.75.69l3.34-8.36h0l0,0h0l0,0h0l-.11,0h-.11l0,0h0l0,0h0l0,0h0L252,64.6Zm-3.75-1.38-3,8.49c.59.2,1.17.42,1.76.63l3.11-8.44L249,63.49h0l-.05,0h-.15l-.56-.2Zm-3.79-1.28-2.76,8.57,1.78.58,2.88-8.52-1.11-.37h0l-.05,0h0l0,0h-.54l-.15-.05Zm-3.83-1.17-2.51,8.64c.6.17,1.2.35,1.79.54l2.64-8.61-.86-.26h-.1l-.83-.25h-.13Zm-3.85-1.07-2.28,8.71,1.81.49,2.4-8.68-.51-.14H238l-.15,0h-.16l-.88-.24Zm-3.88-1-2,8.76,1.83.44,2.15-8.74-1.75-.42H233l-.12,0ZM229,57.9l-1.79,8.82,1.83.38,1.91-8.79L229.56,58h-.16L229,57.9Zm-3.93-.75L223.5,66l1.85.34L227,57.51l-.91-.17h-.22l-.83-.14Zm-4-.63-1.3,8.91,1.85.28,1.42-8.88-.14,0h-.11l-1-.16h-.25l-.49-.08Zm-4-.52-1,8.94,1.86.23,1.18-8.92-1-.12-1-.13Zm-4-.41-.8,9,1.86.18.93-9-2-.19Zm-4-.31-.56,9,1.88.13.68-9L210,55.34h-.29l-.43,0h-.07Zm-4-.19-.32,9,1.88.08.44-9-2-.08Zm-4-.09-.07,9L203,64l.19-9h-.26l-1.74,0Z" transform="translate(-2.5 -2)"/></g><g id="_4_line" data-name="4 line"><path class="cls-5" d="M169.72,131.36A75,75,0,1,1,127,217.42" transform="translate(-2.5 -2)"/></g><g id="_5_line" data-name="5 line"><path class="cls-4" d="M200,67c-4.18,0-8.4.2-12.54.59L191,105.42l1.74-.15h.54q3.06-.21,6.17-.23H200V67ZM85.17,132.87A132.73,132.73,0,0,0,72.4,162.39l36.45,10.73A94.9,94.9,0,0,1,118,152.07l-32.79-19.2ZM164.4,288.1l-14.25,35.23,1.31.52,13.87-35.38-.93-.37Zm14.29,4.5-8.48,37c4.08.94,8.25,1.69,12.41,2.23l4.93-37.68q-4.5-.58-8.86-1.59Zm104.1-46a95.12,95.12,0,0,1-13.6,18.48l27.67,26a133.32,133.32,0,0,0,19-25.84l-33.1-18.68Zm-7.7-156.41-21.47,31.35.82.57L276.24,91l-1.15-.8ZM246.56,75.39,233.26,111c2.82,1.06,5.58,2.24,8.26,3.55l16.64-34.17c-3.77-1.83-7.67-3.5-11.6-5Z" transform="translate(-2.5 -2)"/></g><g id="_6_line" data-name="6 line"><path class="cls-5" d="M242.43,242.43a60,60,0,1,1-28-100.67" transform="translate(-2.5 -2)"/></g></svg>